<svg width="30" height="28" viewBox="0 0 30 28" fill="none" xmlns="http://www.w3.org/2000/svg">
<path d="M4 11.25V26C4 26.2652 4.10536 26.5196 4.29289 26.7071C4.48043 26.8947 4.73478 27 5 27H11V18.5C11 18.1022 11.158 17.7207 11.4393 17.4393C11.7206 17.158 12.1022 17 12.5 17H17.5C17.8978 17 18.2794 17.158 18.5607 17.4393C18.842 17.7207 19 18.1022 19 18.5V27H25C25.2652 27 25.5196 26.8947 25.7071 26.7071C25.8946 26.5196 26 26.2652 26 26V11.25M29 14L15.6806 1.25001C15.3681 0.920007 14.6375 0.916257 14.3194 1.25001L1 14M24 9.18751V2.00001H21V6.31251" stroke="#EFEFEF" stroke-width="2" stroke-linecap="round" stroke-linejoin="round"/>
</svg>
