<svg width="32" height="30" viewBox="0 0 32 30" fill="none" xmlns="http://www.w3.org/2000/svg">
<path d="M16 29L28.8876 14.5805C30.2402 13.0886 31 11.0652 31 8.9553C31 6.84542 30.2402 4.82196 28.8876 3.33005C27.5351 1.83814 25.7007 1 23.788 1C21.8752 1 20.0408 1.83814 18.6883 3.33005L16 6.13333L13.3117 3.33005C11.9592 1.83814 10.1248 1 8.21203 1C6.29928 1 4.46487 1.83814 3.11236 3.33005C1.75984 4.82196 1 6.84542 1 8.9553C1 11.0652 1.75984 13.0886 3.11236 14.5805L16 29Z" stroke="#EFEFEF" stroke-width="2" stroke-linecap="round" stroke-linejoin="round"/>
</svg>
