<svg width="32" height="30" viewBox="0 0 32 30" fill="none" xmlns="http://www.w3.org/2000/svg">
<path d="M2.25318 2.49592C3.69587 0.897808 5.65257 0 7.69283 0C9.09309 0 10.6667 0.5 11.6364 1.20481L9.69697 8L16 16.5V24.5L21.8182 14.5541L17.4545 8L20.7029 1C21.8031 0.353688 23.039 0.00681653 24.3072 0.00681653C26.3474 0.00681653 28.3041 0.904625 29.7468 2.50273C31.1895 4.10084 32 6.26834 32 8.52841C32 10.7885 31.1895 12.956 29.7468 14.5541L16 30L2.25318 14.5473C0.810493 12.9492 0 10.7817 0 8.5216C0 6.26153 0.810493 4.09403 2.25318 2.49592Z" fill="#8A1E1E"/>
</svg>
