<svg width="32" height="30" viewBox="0 0 32 30" fill="none" xmlns="http://www.w3.org/2000/svg">
<path d="M16 30L29.7468 14.5506C31.1895 12.9521 32 10.7841 32 8.52353C32 6.26295 31.1895 4.09496 29.7468 2.49648C28.3041 0.898013 26.3474 0 24.3072 0C22.2669 0 20.3102 0.898013 18.8675 2.49648L16 5.5L13.1325 2.49648C11.6898 0.898013 9.7331 0 7.69283 0C5.65257 0 3.69587 0.898013 2.25318 2.49648C0.810493 4.09496 0 6.26295 0 8.52353C0 10.7841 0.810493 12.9521 2.25318 14.5506L16 30Z" fill="#FFC566"/>
</svg>
