<svg width="28" height="20" viewBox="0 0 28 20" fill="none" xmlns="http://www.w3.org/2000/svg">
<path d="M28 9.625C28.0005 9.98078 27.9167 10.3309 27.7565 10.6427C27.5963 10.9545 27.3649 11.2179 27.0837 11.4082L16.06 18.9151C15.76 19.1202 15.4141 19.2354 15.0582 19.2487C14.7024 19.262 14.3498 19.1729 14.0371 18.9907C13.7245 18.8085 13.4633 18.5399 13.2809 18.213C13.0984 17.886 13.0014 17.5127 13 17.1319V12.146L3.06 18.9151C2.76002 19.1202 2.41406 19.2354 2.05823 19.2487C1.7024 19.262 1.34976 19.1729 1.03712 18.9907C0.724476 18.8085 0.463306 18.5399 0.280876 18.213C0.0984449 17.886 0.00144371 17.5127 0 17.1319V2.11807C0.00144371 1.73733 0.0984449 1.36399 0.280876 1.03702C0.463306 0.710055 0.724476 0.441457 1.03712 0.259271C1.34976 0.0770856 1.7024 -0.0120058 2.05823 0.00129915C2.41406 0.0146041 2.76002 0.129817 3.06 0.33491L13 7.10398V2.11807C13.0014 1.73733 13.0984 1.36399 13.2809 1.03702C13.4633 0.710055 13.7245 0.441457 14.0371 0.259271C14.3498 0.0770856 14.7024 -0.0120058 15.0582 0.00129915C15.4141 0.0146041 15.76 0.129817 16.06 0.33491L27.0837 7.84184C27.3649 8.03214 27.5963 8.29548 27.7565 8.60729C27.9167 8.9191 28.0005 9.26922 28 9.625Z" fill="#EFEFEF"/>
</svg>
