<svg width="28" height="32" viewBox="0 0 28 32" fill="none" xmlns="http://www.w3.org/2000/svg">
<path d="M25.4545 0H19.0909C18.4158 0 17.7684 0.280951 17.291 0.781048C16.8136 1.28115 16.5455 1.95942 16.5455 2.66667V29.3333C16.5455 30.0406 16.8136 30.7189 17.291 31.2189C17.7684 31.719 18.4158 32 19.0909 32H25.4545C26.1296 32 26.7771 31.719 27.2545 31.2189C27.7318 30.7189 28 30.0406 28 29.3333V2.66667C28 1.95942 27.7318 1.28115 27.2545 0.781048C26.7771 0.280951 26.1296 0 25.4545 0ZM8.90909 0H2.54545C1.87036 0 1.22291 0.280951 0.745546 0.781048C0.268181 1.28115 0 1.95942 0 2.66667V29.3333C0 30.0406 0.268181 30.7189 0.745546 31.2189C1.22291 31.719 1.87036 32 2.54545 32H8.90909C9.58419 32 10.2316 31.719 10.709 31.2189C11.1864 30.7189 11.4545 30.0406 11.4545 29.3333V2.66667C11.4545 1.95942 11.1864 1.28115 10.709 0.781048C10.2316 0.280951 9.58419 0 8.90909 0Z" fill="#EFEFEF"/>
</svg>
