<svg width="28" height="32" viewBox="0 0 28 32" fill="none" xmlns="http://www.w3.org/2000/svg">
<path d="M26.7937 13.922L3.86949 0.362298C3.483 0.133461 3.04033 0.00853552 2.58721 0.000422061C2.13409 -0.0076914 1.68694 0.101302 1.29195 0.316145C0.900723 0.527651 0.574818 0.8361 0.347751 1.20977C0.120685 1.58344 0.000653706 2.00885 0 2.44225V29.5585C0.00294789 30.2086 0.272764 30.831 0.750134 31.2888C1.2275 31.7466 1.87336 32.0024 2.54572 32C3.01501 31.9998 3.47519 31.8747 3.87586 31.6385L26.7937 18.0788C27.1621 17.8617 27.4665 17.5566 27.6778 17.1929C27.889 16.8292 28 16.4191 28 16.0019C28 15.5848 27.889 15.1746 27.6778 14.8109C27.4665 14.4472 27.1621 14.1421 26.7937 13.925V13.922Z" fill="#EFEFEF"/>
</svg>
