<svg width="32" height="25" viewBox="0 0 32 25" fill="none" xmlns="http://www.w3.org/2000/svg">
<path d="M0 1.64217C0 1.33924 0.124869 1.04873 0.347137 0.834533C0.569405 0.620335 0.870865 0.5 1.1852 0.5H27.2596C27.5739 0.5 27.8754 0.620335 28.0977 0.834533C28.3199 1.04873 28.4448 1.33924 28.4448 1.64217C28.4448 1.94509 28.3199 2.2356 28.0977 2.4498C27.8754 2.664 27.5739 2.78433 27.2596 2.78433H1.1852C0.870865 2.78433 0.569405 2.664 0.347137 2.4498C0.124869 2.2356 0 1.94509 0 1.64217ZM1.1852 11.9217H18.9632C19.2775 11.9217 19.579 11.8013 19.8013 11.5871C20.0235 11.3729 20.1484 11.0824 20.1484 10.7795C20.1484 10.4766 20.0235 10.1861 19.8013 9.97186C19.579 9.75766 19.2775 9.63733 18.9632 9.63733H1.1852C0.870865 9.63733 0.569405 9.75766 0.347137 9.97186C0.124869 10.1861 0 10.4766 0 10.7795C0 11.0824 0.124869 11.3729 0.347137 11.5871C0.569405 11.8013 0.870865 11.9217 1.1852 11.9217ZM11.852 18.7747H1.1852C0.870865 18.7747 0.569405 18.895 0.347137 19.1092C0.124869 19.3234 0 19.6139 0 19.9168C0 20.2197 0.124869 20.5103 0.347137 20.7245C0.569405 20.9387 0.870865 21.059 1.1852 21.059H11.852C12.1663 21.059 12.4678 20.9387 12.6901 20.7245C12.9123 20.5103 13.0372 20.2197 13.0372 19.9168C13.0372 19.6139 12.9123 19.3234 12.6901 19.1092C12.4678 18.895 12.1663 18.7747 11.852 18.7747ZM31.95 10.5368C31.9053 10.681 31.8314 10.8153 31.7326 10.9319C31.6338 11.0485 31.5121 11.1452 31.3744 11.2163C31.2367 11.2874 31.0858 11.3316 30.9303 11.3463C30.7749 11.361 30.6179 11.346 30.4685 11.302L26.0744 10.0299V19.9168C26.0761 20.9246 25.7325 21.9047 25.097 22.7051C24.4614 23.5054 23.5695 24.0811 22.5596 24.3429C21.5498 24.6047 20.4785 24.5379 19.5121 24.1529C18.5457 23.7678 17.7382 23.0861 17.215 22.2135C16.6918 21.3409 16.4821 20.3263 16.6186 19.3271C16.755 18.328 17.23 17.4002 17.9696 16.6877C18.7093 15.9753 19.6723 15.5182 20.7092 15.3872C21.7461 15.2562 22.7988 15.4588 23.704 15.9635V8.49516C23.704 8.31712 23.7473 8.14155 23.8303 7.98248C23.9133 7.8234 24.0337 7.68523 24.1819 7.57898C24.3302 7.47273 24.5021 7.40135 24.6841 7.37055C24.8661 7.33974 25.053 7.35035 25.2299 7.40154L31.1559 9.11479C31.4569 9.20195 31.7096 9.4007 31.8585 9.66735C32.0074 9.93401 32.0403 10.2467 31.95 10.5368ZM23.704 19.9168C23.704 19.465 23.565 19.0234 23.3045 18.6477C23.0441 18.2721 22.6738 17.9793 22.2407 17.8064C21.8076 17.6335 21.331 17.5882 20.8712 17.6764C20.4113 17.7645 19.989 17.9821 19.6575 18.3016C19.326 18.621 19.1002 19.028 19.0087 19.4712C18.9173 19.9143 18.9642 20.3736 19.1436 20.791C19.323 21.2084 19.6269 21.5652 20.0167 21.8162C20.4065 22.0672 20.8648 22.2011 21.3336 22.2011C21.9623 22.2011 22.5652 21.9605 23.0097 21.5321C23.4543 21.1037 23.704 20.5227 23.704 19.9168Z" fill="#EFEFEF"/>
</svg>
