<svg width="28" height="20" viewBox="0 0 28 20" fill="none" xmlns="http://www.w3.org/2000/svg">
<path d="M2.51037e-06 10.375C-0.000506367 10.0192 0.0832537 9.6691 0.243472 9.35729C0.40369 9.04548 0.635147 8.78214 0.916253 8.59184L11.94 1.08491C12.24 0.879816 12.5859 0.764602 12.9418 0.751298C13.2976 0.737993 13.6502 0.827085 13.9629 1.00927C14.2755 1.19146 14.5367 1.46005 14.7191 1.78702C14.9016 2.11399 14.9986 2.48733 15 2.86807L15 7.85398L24.94 1.08491C25.24 0.879817 25.5859 0.764604 25.9418 0.751299C26.2976 0.737994 26.6502 0.827086 26.9629 1.00927C27.2755 1.19146 27.5367 1.46006 27.7191 1.78702C27.9016 2.11399 27.9986 2.48733 28 2.86807L28 17.8819C27.9986 18.2627 27.9016 18.636 27.7191 18.963C27.5367 19.2899 27.2755 19.5585 26.9629 19.7407C26.6502 19.9229 26.2976 20.012 25.9418 19.9987C25.5859 19.9854 25.24 19.8702 24.94 19.6651L15 12.896L15 17.8819C14.9986 18.2627 14.9016 18.636 14.7191 18.963C14.5367 19.2899 14.2755 19.5585 13.9629 19.7407C13.6502 19.9229 13.2976 20.012 12.9418 19.9987C12.5859 19.9854 12.24 19.8702 11.94 19.6651L0.916253 12.1582C0.635147 11.9679 0.40369 11.7045 0.243472 11.3927C0.0832536 11.0809 -0.00050643 10.7308 2.51037e-06 10.375Z" fill="#EFEFEF"/>
</svg>
