<svg width="28" height="20" viewBox="0 0 28 20" fill="none" xmlns="http://www.w3.org/2000/svg">
<path d="M0 1.05266C0 0.773477 0.109259 0.505729 0.303741 0.308317C0.498223 0.110905 0.761998 0 1.03704 0H23.8519C24.1269 0 24.3907 0.110905 24.5851 0.308317C24.7796 0.505729 24.8889 0.773477 24.8889 1.05266C24.8889 1.33184 24.7796 1.59959 24.5851 1.797C24.3907 1.99441 24.1269 2.10532 23.8519 2.10532H1.03704C0.761998 2.10532 0.498223 1.99441 0.303741 1.797C0.109259 1.59959 0 1.33184 0 1.05266ZM13.4815 8.42127H1.03704C0.761998 8.42127 0.498223 8.53218 0.303741 8.72959C0.109259 8.927 0 9.19475 0 9.47393C0 9.75311 0.109259 10.0209 0.303741 10.2183C0.498223 10.4157 0.761998 10.5266 1.03704 10.5266H13.4815C13.7565 10.5266 14.0203 10.4157 14.2148 10.2183C14.4093 10.0209 14.5185 9.75311 14.5185 9.47393C14.5185 9.19475 14.4093 8.927 14.2148 8.72959C14.0203 8.53218 13.7565 8.42127 13.4815 8.42127ZM13.4815 16.8425H1.03704C0.761998 16.8425 0.498223 16.9535 0.303741 17.1509C0.109259 17.3483 0 17.616 0 17.8952C0 18.1744 0.109259 18.4421 0.303741 18.6395C0.498223 18.837 0.761998 18.9479 1.03704 18.9479H13.4815C13.7565 18.9479 14.0203 18.837 14.2148 18.6395C14.4093 18.4421 14.5185 18.1744 14.5185 17.8952C14.5185 17.616 14.4093 17.3483 14.2148 17.1509C14.0203 16.9535 13.7565 16.8425 13.4815 16.8425ZM28 13.6846C27.9999 13.863 27.9551 14.0385 27.8699 14.1946C27.7846 14.3506 27.6617 14.4821 27.5126 14.5767L19.2163 19.84C19.0594 19.9396 18.879 19.9947 18.694 19.9996C18.509 20.0046 18.3261 19.9592 18.1642 19.8682C18.0023 19.7771 17.8673 19.6438 17.7733 19.482C17.6793 19.3201 17.6297 19.1357 17.6296 18.9479V8.42127C17.6297 8.23341 17.6793 8.049 17.7733 7.88717C17.8673 7.72534 18.0023 7.592 18.1642 7.50097C18.3261 7.40994 18.509 7.36455 18.694 7.3695C18.879 7.37446 19.0594 7.42958 19.2163 7.52914L27.5126 12.7924C27.6617 12.887 27.7846 13.0185 27.8699 13.1746C27.9551 13.3306 27.9999 13.5061 28 13.6846ZM25.0069 13.6846L19.7037 10.32V17.0491L25.0069 13.6846Z" fill="#EFEFEF"/>
</svg>
