<svg width="28" height="28" viewBox="0 0 28 28" fill="none" xmlns="http://www.w3.org/2000/svg">
<path d="M0.000846995 14C0.00369728 11.3157 1.0257 8.74224 2.84263 6.84416C4.65957 4.94609 7.12304 3.87845 9.69257 3.87547H24.323L22.9298 2.42147C22.7278 2.21039 22.6143 1.92409 22.6143 1.62557C22.6143 1.32705 22.7278 1.04076 22.9298 0.829673C23.1319 0.618587 23.406 0.5 23.6917 0.5C23.9775 0.5 24.2515 0.618587 24.4536 0.829673L27.6842 4.20452C27.7843 4.30899 27.8637 4.43306 27.9179 4.56963C27.9721 4.7062 28 4.85258 28 5.00042C28 5.14825 27.9721 5.29464 27.9179 5.4312C27.8637 5.56777 27.7843 5.69184 27.6842 5.79632L24.4536 9.17116C24.2515 9.38225 23.9775 9.50083 23.6917 9.50083C23.406 9.50083 23.1319 9.38225 22.9298 9.17116C22.7278 8.96008 22.6143 8.67378 22.6143 8.37526C22.6143 8.07674 22.7278 7.79045 22.9298 7.57936L24.323 6.12536H9.69257C7.69402 6.1276 5.77794 6.95796 4.36476 8.43426C2.95157 9.91056 2.1567 11.9122 2.15456 14C2.15456 14.2984 2.04111 14.5845 1.83916 14.7955C1.63721 15.0064 1.36331 15.1249 1.07771 15.1249C0.792105 15.1249 0.518201 15.0064 0.316251 14.7955C0.114301 14.5845 0.000846995 14.2984 0.000846995 14ZM26.9223 12.8751C26.6367 12.8751 26.3628 12.9936 26.1608 13.2045C25.9589 13.4155 25.8454 13.7016 25.8454 14C25.8433 16.0878 25.0484 18.0894 23.6352 19.5657C22.2221 21.042 20.306 21.8724 18.3074 21.8746H3.67697L5.07016 20.4206C5.17021 20.3161 5.24957 20.192 5.30372 20.0555C5.35787 19.9189 5.38574 19.7726 5.38574 19.6247C5.38574 19.4769 5.35787 19.3306 5.30372 19.194C5.24957 19.0574 5.17021 18.9334 5.07016 18.8288C4.97011 18.7243 4.85133 18.6414 4.7206 18.5848C4.58988 18.5283 4.44977 18.4992 4.30828 18.4992C4.16679 18.4992 4.02668 18.5283 3.89595 18.5848C3.76523 18.6414 3.64645 18.7243 3.5464 18.8288L0.315828 22.2037C0.215706 22.3082 0.136277 22.4322 0.0820854 22.5688C0.0278932 22.7054 0 22.8517 0 22.9996C0 23.1474 0.0278932 23.2938 0.0820854 23.4304C0.136277 23.5669 0.215706 23.691 0.315828 23.7955L3.5464 27.1703C3.64645 27.2748 3.76523 27.3578 3.89595 27.4143C4.02668 27.4709 4.16679 27.5 4.30828 27.5C4.44977 27.5 4.58988 27.4709 4.7206 27.4143C4.85133 27.3578 4.97011 27.2748 5.07016 27.1703C5.17021 27.0658 5.24957 26.9417 5.30372 26.8052C5.35787 26.6686 5.38574 26.5222 5.38574 26.3744C5.38574 26.2266 5.35787 26.0802 5.30372 25.9437C5.24957 25.8071 5.17021 25.683 5.07016 25.5785L3.67697 24.1245H18.3074C20.877 24.1216 23.3404 23.0539 25.1574 21.1558C26.9743 19.2578 27.9963 16.6843 27.9992 14C27.9992 13.7016 27.8857 13.4155 27.6838 13.2045C27.4818 12.9936 27.2079 12.8751 26.9223 12.8751Z" fill="#EFEFEF"/>
</svg>
