<svg width="28" height="28" viewBox="0 0 28 28" fill="none" xmlns="http://www.w3.org/2000/svg">
<path d="M27.6959 22.0082C27.7923 22.1264 27.8688 22.2668 27.921 22.4213C27.9731 22.5758 28 22.7414 28 22.9086C28 23.0759 27.9731 23.2415 27.921 23.396C27.8688 23.5505 27.7923 23.6909 27.6959 23.8091L24.5848 27.627C24.3903 27.8658 24.1263 28 23.8512 28C23.576 28 23.3121 27.8658 23.1175 27.627C22.9229 27.3882 22.8136 27.0643 22.8136 26.7266C22.8136 26.3889 22.9229 26.065 23.1175 25.8262L24.4591 24.1813H22.936C21.4506 24.1798 19.9869 23.7439 18.6662 22.9098C17.3454 22.0757 16.2056 20.8674 15.3412 19.385L9.93323 10.0945C9.26086 8.94157 8.37435 8.0018 7.3471 7.35307C6.31986 6.70433 5.18145 6.36529 4.02618 6.36402H1.03701C0.761976 6.36402 0.498209 6.22994 0.303732 5.99127C0.109256 5.7526 0 5.42889 0 5.09136C0 4.75383 0.109256 4.43012 0.303732 4.19145C0.498209 3.95278 0.761976 3.8187 1.03701 3.8187H4.02618C5.51155 3.82021 6.97524 4.25607 8.296 5.09017C9.61676 5.92427 10.7566 7.1326 11.621 8.61504L17.0289 17.9055C17.7013 19.0584 18.5878 19.9982 19.6151 20.6469C20.6423 21.2957 21.7807 21.6347 22.936 21.636H24.4591L23.1175 19.9911C22.9229 19.7523 22.8136 19.4284 22.8136 19.0907C22.8136 18.7529 22.9229 18.429 23.1175 18.1902C23.3121 17.9514 23.576 17.8173 23.8512 17.8173C24.1263 17.8173 24.3903 17.9514 24.5848 18.1902L27.6959 22.0082ZM15.4255 10.6593C15.5363 10.7564 15.6616 10.8258 15.7943 10.8635C15.927 10.9012 16.0644 10.9065 16.1987 10.879C16.3331 10.8515 16.4617 10.7919 16.5772 10.7034C16.6927 10.6149 16.7929 10.4994 16.8721 10.3634L17.0277 10.0977C17.6999 8.94394 18.5865 8.00343 19.614 7.35412C20.6415 6.70481 21.7803 6.3654 22.936 6.36402H24.4591L23.1175 8.00894C22.9229 8.24774 22.8136 8.57163 22.8136 8.90935C22.8136 9.24707 22.9229 9.57095 23.1175 9.80976C23.3121 10.0486 23.576 10.1827 23.8512 10.1827C24.1263 10.1827 24.3903 10.0486 24.5848 9.80976L27.6959 5.99177C27.7923 5.87357 27.8688 5.73321 27.921 5.57871C27.9731 5.42421 28 5.25861 28 5.09136C28 4.92411 27.9731 4.7585 27.921 4.60401C27.8688 4.44951 27.7923 4.30915 27.6959 4.19095L24.5848 0.372962C24.3903 0.134158 24.1263 -6.65724e-09 23.8512 0C23.576 6.65724e-09 23.3121 0.134158 23.1175 0.372962C22.9229 0.611765 22.8136 0.935652 22.8136 1.27337C22.8136 1.61109 22.9229 1.93498 23.1175 2.17378L24.4591 3.8187H22.936C21.4506 3.82021 19.9869 4.25607 18.6662 5.09017C17.3454 5.92427 16.2056 7.1326 15.3412 8.61504L15.1857 8.88071C15.106 9.01672 15.0491 9.17068 15.018 9.33376C14.987 9.49685 14.9825 9.66585 15.0047 9.83108C15.027 9.99631 15.0757 10.1545 15.1479 10.2966C15.2201 10.4387 15.3144 10.562 15.4255 10.6593ZM11.5367 17.3407C11.4259 17.2436 11.3006 17.1742 11.1679 17.1365C11.0352 17.0988 10.8978 17.0935 10.7635 17.121C10.6291 17.1485 10.5005 17.2081 10.385 17.2966C10.2694 17.3851 10.1692 17.5006 10.0901 17.6366L9.93453 17.9023C9.26231 19.0561 8.37571 19.9966 7.34821 20.6459C6.32071 21.2952 5.1819 21.6346 4.02618 21.636H1.03701C0.761976 21.636 0.498209 21.7701 0.303732 22.0087C0.109256 22.2474 0 22.5711 0 22.9086C0 23.2462 0.109256 23.5699 0.303732 23.8086C0.498209 24.0472 0.761976 24.1813 1.03701 24.1813H4.02618C5.51155 24.1798 6.97524 23.7439 8.296 22.9098C9.61676 22.0757 10.7566 20.8674 11.621 19.385L11.7765 19.1193C11.8561 18.9833 11.9131 18.8293 11.9442 18.6662C11.9752 18.5031 11.9797 18.3341 11.9574 18.1689C11.9352 18.0037 11.8865 17.8455 11.8143 17.7034C11.7421 17.5613 11.6478 17.438 11.5367 17.3407Z" fill="#EFEFEF"/>
</svg>
