<svg width="28" height="28" viewBox="0 0 28 28" fill="none" xmlns="http://www.w3.org/2000/svg">
<path d="M2.54545 9.69231V18.3077C2.54545 18.5933 2.41136 18.8672 2.17268 19.0692C1.934 19.2712 1.61028 19.3846 1.27273 19.3846C0.935179 19.3846 0.611456 19.2712 0.372773 19.0692C0.134091 18.8672 0 18.5933 0 18.3077V9.69231C0 9.40669 0.134091 9.13277 0.372773 8.93081C0.611456 8.72885 0.935179 8.61539 1.27273 8.61539C1.61028 8.61539 1.934 8.72885 2.17268 8.93081C2.41136 9.13277 2.54545 9.40669 2.54545 9.69231ZM7.63636 0C7.29882 0 6.97509 0.113461 6.73641 0.315423C6.49773 0.517386 6.36364 0.791305 6.36364 1.07692V26.9231C6.36364 27.2087 6.49773 27.4826 6.73641 27.6846C6.97509 27.8865 7.29882 28 7.63636 28C7.97391 28 8.29763 27.8865 8.53632 27.6846C8.775 27.4826 8.90909 27.2087 8.90909 26.9231V1.07692C8.90909 0.791305 8.775 0.517386 8.53632 0.315423C8.29763 0.113461 7.97391 0 7.63636 0ZM14 4.30769C13.6625 4.30769 13.3387 4.42115 13.1 4.62312C12.8614 4.82508 12.7273 5.099 12.7273 5.38462V22.6154C12.7273 22.901 12.8614 23.1749 13.1 23.3769C13.3387 23.5788 13.6625 23.6923 14 23.6923C14.3375 23.6923 14.6613 23.5788 14.9 23.3769C15.1386 23.1749 15.2727 22.901 15.2727 22.6154V5.38462C15.2727 5.099 15.1386 4.82508 14.9 4.62312C14.6613 4.42115 14.3375 4.30769 14 4.30769ZM20.3636 8.61539C20.0261 8.61539 19.7024 8.72885 19.4637 8.93081C19.225 9.13277 19.0909 9.40669 19.0909 9.69231V18.3077C19.0909 18.5933 19.225 18.8672 19.4637 19.0692C19.7024 19.2712 20.0261 19.3846 20.3636 19.3846C20.7012 19.3846 21.0249 19.2712 21.2636 19.0692C21.5023 18.8672 21.6364 18.5933 21.6364 18.3077V9.69231C21.6364 9.40669 21.5023 9.13277 21.2636 8.93081C21.0249 8.72885 20.7012 8.61539 20.3636 8.61539ZM26.7273 6.46154C26.3897 6.46154 26.066 6.575 25.8273 6.77696C25.5886 6.97892 25.4545 7.25284 25.4545 7.53846V20.4615C25.4545 20.7472 25.5886 21.0211 25.8273 21.223C26.066 21.425 26.3897 21.5385 26.7273 21.5385C27.0648 21.5385 27.3885 21.425 27.6272 21.223C27.8659 21.0211 28 20.7472 28 20.4615V7.53846C28 7.25284 27.8659 6.97892 27.6272 6.77696C27.3885 6.575 27.0648 6.46154 26.7273 6.46154Z" fill="#EFEFEF"/>
</svg>
