<svg width="32" height="28" viewBox="0 0 32 28" fill="none" xmlns="http://www.w3.org/2000/svg">
<path d="M18.7809 0.108825C18.5998 0.0205747 18.3975 -0.0151068 18.1972 0.00583465C17.9968 0.0267761 17.8063 0.103501 17.6474 0.227291L8.24549 7.53852H2.15393C1.58267 7.53852 1.03481 7.76545 0.63087 8.16939C0.226931 8.57333 0 9.12119 0 9.69245V18.3081C0 18.8794 0.226931 19.4273 0.63087 19.8312C1.03481 20.2351 1.58267 20.4621 2.15393 20.4621H8.24549L17.6474 27.7733C17.8065 27.897 17.9971 27.9735 18.1975 27.9943C18.398 28.015 18.6002 27.9791 18.7813 27.8906C18.9623 27.8021 19.1149 27.6646 19.2217 27.4937C19.3285 27.3228 19.3852 27.1254 19.3853 26.9238V1.07674C19.3854 0.874987 19.3287 0.677278 19.2218 0.506147C19.115 0.335016 18.9622 0.197346 18.7809 0.108825ZM30.9169 16.4692C31.119 16.6713 31.2325 16.9454 31.2325 17.2312C31.2325 17.517 31.119 17.7911 30.9169 17.9931C30.7148 18.1952 30.4407 18.3087 30.155 18.3087C29.8692 18.3087 29.5951 18.1952 29.393 17.9931L26.9241 15.5229L24.4551 17.9931C24.253 18.1952 23.979 18.3087 23.6932 18.3087C23.4074 18.3087 23.1333 18.1952 22.9312 17.9931C22.7291 17.7911 22.6156 17.517 22.6156 17.2312C22.6156 16.9454 22.7291 16.6713 22.9312 16.4692L25.4015 14.0003L22.9312 11.5314C22.7291 11.3293 22.6156 11.0552 22.6156 10.7694C22.6156 10.4836 22.7291 10.2095 22.9312 10.0075C23.1333 9.80537 23.4074 9.69185 23.6932 9.69185C23.979 9.69185 24.253 9.80537 24.4551 10.0075L26.9241 12.4777L29.393 10.0075C29.5951 9.80537 29.8692 9.69185 30.155 9.69185C30.4407 9.69185 30.7148 9.80538 30.9169 10.0075C31.119 10.2095 31.2325 10.4836 31.2325 10.7694C31.2325 11.0552 31.119 11.3293 30.9169 11.5314L28.4466 14.0003L30.9169 16.4692Z" fill="#EFEFEF"/>
</svg>
