<svg width="28" height="28" viewBox="0 0 28 28" fill="none" xmlns="http://www.w3.org/2000/svg">
<path d="M16.8371 0.108825C16.6747 0.0205747 16.4934 -0.0151068 16.3138 0.00583465C16.1342 0.0267761 15.9634 0.103501 15.8209 0.227291L7.3921 7.53852H1.931C1.41887 7.53852 0.927708 7.76545 0.565576 8.16939C0.203444 8.57333 0 9.12119 0 9.69245V18.3081C0 18.8794 0.203444 19.4273 0.565576 19.8312C0.927708 20.2351 1.41887 20.4621 1.931 20.4621H7.3921L15.8209 27.7733C15.9635 27.897 16.1344 27.9735 16.3141 27.9943C16.4938 28.015 16.6751 27.9791 16.8375 27.8906C16.9998 27.8021 17.1366 27.6646 17.2323 27.4937C17.328 27.3228 17.3788 27.1254 17.379 26.9238V1.07674C17.379 0.874987 17.3282 0.677278 17.2324 0.506147C17.1366 0.335016 16.9996 0.197346 16.8371 0.108825ZM27.7171 16.4692C27.8982 16.6713 28 16.9454 28 17.2312C28 17.517 27.8982 17.7911 27.7171 17.9931C27.5359 18.1952 27.2902 18.3087 27.034 18.3087C26.7778 18.3087 26.532 18.1952 26.3509 17.9931L24.1375 15.5229L21.9241 17.9931C21.7429 18.1952 21.4972 18.3087 21.241 18.3087C20.9848 18.3087 20.739 18.1952 20.5579 17.9931C20.3767 17.7911 20.2749 17.517 20.2749 17.2312C20.2749 16.9454 20.3767 16.6713 20.5579 16.4692L22.7725 14.0003L20.5579 11.5314C20.3767 11.3293 20.2749 11.0552 20.2749 10.7694C20.2749 10.4836 20.3767 10.2095 20.5579 10.0075C20.739 9.80537 20.9848 9.69185 21.241 9.69185C21.4972 9.69185 21.7429 9.80537 21.9241 10.0075L24.1375 12.4777L26.3509 10.0075C26.532 9.80537 26.7778 9.69185 27.034 9.69185C27.2902 9.69185 27.5359 9.80538 27.7171 10.0075C27.8982 10.2095 28 10.4836 28 10.7694C28 11.0552 27.8982 11.3293 27.7171 11.5314L25.5024 14.0003L27.7171 16.4692Z" fill="#EFEFEF"/>
</svg>
