<svg width="32" height="28" viewBox="0 0 32 28" fill="none" xmlns="http://www.w3.org/2000/svg">
<path d="M18.7809 0.108825C18.5998 0.0205747 18.3975 -0.0151068 18.1972 0.00583465C17.9968 0.0267761 17.8063 0.103501 17.6474 0.227291L8.24549 7.53852H2.15393C1.58267 7.53852 1.03481 7.76545 0.63087 8.16939C0.226931 8.57333 0 9.12119 0 9.69245V18.3081C0 18.8794 0.226931 19.4273 0.63087 19.8312C1.03481 20.2351 1.58267 20.4621 2.15393 20.4621H8.24549L17.6474 27.7733C17.8065 27.897 17.9971 27.9735 18.1975 27.9943C18.398 28.015 18.6002 27.9791 18.7813 27.8906C18.9623 27.8021 19.1149 27.6646 19.2217 27.4937C19.3285 27.3228 19.3852 27.1254 19.3853 26.9238V1.07674C19.3854 0.874987 19.3287 0.677278 19.2218 0.506147C19.115 0.335016 18.9622 0.197346 18.7809 0.108825ZM24.5009 10.4409C25.3671 11.4243 25.845 12.6898 25.845 14.0003C25.845 15.3108 25.3671 16.5763 24.5009 17.5597C24.3106 17.7687 24.0458 17.8946 23.7635 17.9101C23.4813 17.9256 23.2042 17.8296 22.9922 17.6426C22.7801 17.4557 22.6501 17.1928 22.6301 16.9108C22.6102 16.6289 22.7019 16.3503 22.8855 16.1354C23.4049 15.5454 23.6915 14.7863 23.6915 14.0003C23.6915 13.2143 23.4049 12.4552 22.8855 11.8652C22.7019 11.6503 22.6102 11.3717 22.6301 11.0897C22.6501 10.8078 22.7801 10.5449 22.9922 10.358C23.2042 10.171 23.4813 10.075 23.7635 10.0905C24.0458 10.106 24.3106 10.2319 24.5009 10.4409ZM31.2319 14.0003C31.2335 16.6499 30.257 19.2068 28.4897 21.1809C28.2978 21.3885 28.0321 21.5124 27.7497 21.5257C27.4674 21.5391 27.1911 21.441 26.9805 21.2524C26.7699 21.0639 26.6418 20.8001 26.624 20.518C26.6061 20.2359 26.6999 19.9581 26.885 19.7445C28.2977 18.165 29.0788 16.1201 29.0788 14.001C29.0788 11.8818 28.2977 9.83697 26.885 8.25739C26.7881 8.15247 26.7129 8.0293 26.664 7.89506C26.6151 7.76082 26.5934 7.61819 26.6002 7.47549C26.6069 7.33278 26.642 7.19284 26.7034 7.06382C26.7648 6.9348 26.8512 6.81929 26.9577 6.724C27.0641 6.62871 27.1884 6.55555 27.3235 6.50879C27.4585 6.46203 27.6014 6.4426 27.744 6.45163C27.8866 6.46065 28.0259 6.49796 28.154 6.56137C28.282 6.62479 28.3961 6.71304 28.4897 6.82099C30.2574 8.79428 31.234 11.351 31.2319 14.0003Z" fill="#EFEFEF"/>
</svg>
