<svg width="26" height="28" viewBox="0 0 26 28" fill="none" xmlns="http://www.w3.org/2000/svg">
<path d="M18.7809 0.108825C18.5998 0.0205747 18.3975 -0.0151068 18.1972 0.00583465C17.9968 0.0267761 17.8063 0.103501 17.6474 0.227291L8.24549 7.53852H2.15392C1.58267 7.53852 1.03481 7.76545 0.63087 8.16939C0.226931 8.57333 0 9.12119 0 9.69245V18.3081C0 18.8794 0.226931 19.4273 0.63087 19.8312C1.03481 20.2351 1.58267 20.4621 2.15392 20.4621H8.24549L17.6474 27.7733C17.8065 27.897 17.9971 27.9735 18.1975 27.9943C18.398 28.015 18.6002 27.9791 18.7813 27.8906C18.9623 27.8021 19.1149 27.6646 19.2217 27.4937C19.3285 27.3228 19.3852 27.1254 19.3853 26.9238V1.07674C19.3854 0.874987 19.3287 0.677278 19.2218 0.506147C19.115 0.335016 18.9622 0.197346 18.7809 0.108825ZM25.8471 14.0003C25.848 15.3121 25.3692 16.579 24.5009 17.5624C24.3106 17.7714 24.0458 17.8973 23.7635 17.9128C23.4813 17.9283 23.2042 17.8322 22.9922 17.6453C22.7801 17.4583 22.6501 17.1955 22.6301 16.9135C22.6102 16.6316 22.7019 16.353 22.8855 16.1381C23.4049 15.5481 23.6915 14.789 23.6915 14.003C23.6915 13.2169 23.4049 12.4579 22.8855 11.8679C22.7893 11.7623 22.7151 11.6385 22.6673 11.5039C22.6194 11.3693 22.5988 11.2266 22.6066 11.0839C22.6145 10.9413 22.6506 10.8016 22.7129 10.6731C22.7753 10.5445 22.8626 10.4297 22.9697 10.3352C23.0769 10.2407 23.2018 10.1685 23.3371 10.1228C23.4724 10.077 23.6155 10.0587 23.758 10.0688C23.9005 10.0789 24.0396 10.1172 24.1671 10.1815C24.2947 10.2459 24.4081 10.335 24.5009 10.4436C25.3673 11.426 25.8459 12.6905 25.8471 14.0003Z" fill="#EFEFEF"/>
</svg>
