<svg width="28" height="28" viewBox="0 0 28 28" fill="none" xmlns="http://www.w3.org/2000/svg">
<path d="M16.3479 0.00583473C16.5279 -0.0151067 16.7095 0.0205738 16.8723 0.108824C17.0352 0.197345 17.1724 0.335017 17.2684 0.506148C17.3644 0.677278 17.4153 0.874984 17.4153 1.07674V26.9238C17.4151 27.1254 17.3642 27.3228 17.2683 27.4937C17.1723 27.6646 17.0353 27.8021 16.8726 27.8906C16.7099 27.9791 16.5283 28.015 16.3482 27.9943C16.1681 27.9735 15.9969 27.897 15.8539 27.7733L7.40754 20.4621H1.93503C1.42176 20.4621 0.929701 20.2351 0.56676 19.8312C0.20382 19.4273 0 18.8794 0 18.3081V9.69244C0 9.12119 0.20382 8.57333 0.56676 8.16939C0.929701 7.76545 1.42176 7.53852 1.93503 7.53852H7.40754L15.8539 0.227286C15.9968 0.103496 16.1678 0.0267762 16.3479 0.00583473Z" fill="#EFEFEF"/>
<path d="M23.1705 14.0003C23.1705 12.6898 22.7421 11.4243 21.9655 10.441C21.7949 10.2319 21.5575 10.106 21.3044 10.0905C21.0514 10.075 20.803 10.1711 20.6129 10.358C20.4228 10.545 20.3062 10.8078 20.2883 11.0898C20.2704 11.3717 20.3526 11.6503 20.5172 11.8652C20.9829 12.4552 21.2398 13.2143 21.2398 14.0003C21.2398 14.7864 20.9829 15.5454 20.5172 16.1354C20.3526 16.3504 20.2704 16.6289 20.2883 16.9109C20.3062 17.1928 20.4228 17.4557 20.6129 17.6426C20.803 17.8296 21.0514 17.9257 21.3044 17.9101C21.5575 17.8946 21.7949 17.7687 21.9655 17.5597C22.7421 16.5763 23.1705 15.3108 23.1705 14.0003Z" fill="#EFEFEF"/>
</svg>
